<svg xmlns="http://www.w3.org/2000/svg" width="722" height="244" fill="none"><path fill="#fff" fill-rule="evenodd" d="M218.691 222.15c-6.629 4.313-13.309 7.968-19.936 10.92-26.179 11.661-51.189 12.239-69.227-.238-4.12-2.85-7.728-6.278-10.819-10.211 19.117-12.803 37.69-30.97 53.341-53.44 37.638-54.037 45.974-115.159 22.714-147.3 6.645-4.327 13.341-7.992 19.984-10.95 26.179-11.662 51.189-12.24 69.227.237 4.11 2.842 7.709 6.26 10.795 10.18-19.133 12.805-37.724 30.983-53.388 53.471-37.65 54.054-45.979 115.198-22.691 147.331Zm-25.13-201.87C226.8-1.4 261.468-6.831 285.118 9.528c4.334 2.997 8.109 6.596 11.33 10.712 33.209-21.645 67.836-27.06 91.464-10.712 4.346 3.007 8.131 6.62 11.358 10.754C432.51-1.4 467.177-6.832 490.828 9.527c4.333 2.997 8.108 6.596 11.33 10.712 33.209-21.645 67.836-27.06 91.463-10.712 4.347 3.007 8.131 6.62 11.359 10.754C638.219-1.4 672.887-6.832 696.537 9.527 712.784 20.765 721.178 40.45 722 64.19h-2.003c-.819-23.292-9.057-42.27-24.603-53.022-18.038-12.477-43.048-11.899-69.227-.238-6.643 2.96-13.339 6.624-19.984 10.95 23.26 32.142 14.924 93.264-22.714 147.301-15.651 22.47-34.225 40.637-53.341 53.44 3.091 3.933 6.698 7.361 10.819 10.211 18.038 12.477 43.048 11.899 69.227.238 11.435-5.094 23.026-12.279 34.245-21.33v2.559c-36.954 29.287-77.844 38.692-104.616 20.174-4.344-3.005-8.127-6.614-11.353-10.742-33.223 21.67-67.871 27.098-91.51 10.742-4.336-3-8.112-6.602-11.335-10.723-33.225 21.654-67.871 27.074-91.511 10.723-4.344-3.005-8.127-6.614-11.354-10.743-33.223 21.671-67.871 27.099-91.509 10.743-4.336-3-8.113-6.602-11.335-10.723-33.226 21.654-67.872 27.074-91.511 10.723-4.345-3.005-8.127-6.614-11.354-10.743-33.223 21.671-67.871 27.099-91.51 10.743-37.66-26.057-33.114-97.537 10.152-159.654 43.266-62.117 108.869-91.35 146.529-65.292 4.347 3.007 8.131 6.62 11.359 10.754Zm-77.734 201.85c-6.637 4.322-13.324 7.983-19.96 10.939-26.17 11.662-51.17 12.24-69.203-.237C8.632 220.356.436 196.807 2.25 168.293c1.81-28.471 13.609-61.526 35.069-92.336 21.46-30.81 48.407-53.383 74.538-65.026 26.17-11.662 51.171-12.24 69.203.237 4.123 2.853 7.732 6.284 10.824 10.222-19.117 12.802-37.691 30.965-53.343 53.429-37.655 54.043-45.991 115.173-22.713 147.311Zm1.675-1.105c-9.586-13.192-13.742-31.598-12.398-52.732 1.811-28.471 13.614-61.526 35.081-92.336 15.553-22.322 33.987-40.32 52.904-52.97 9.577 13.19 13.729 31.592 12.385 52.72-1.81 28.471-13.608 61.526-35.068 92.336-15.553 22.328-33.987 40.331-52.904 52.982Zm102.865.02c-9.593-13.193-13.753-31.607-12.409-52.752 1.811-28.471 13.609-61.526 35.069-92.336 15.565-22.347 34.018-40.36 52.951-53.013 7.814 10.736 12.027 24.933 12.6 41.246h2.003c-.574-16.6-4.852-31.218-12.927-42.352 6.621-4.308 13.292-7.958 19.911-10.907 26.17-11.662 51.172-12.24 69.203.237 4.123 2.853 7.732 6.284 10.825 10.222-19.118 12.802-37.692 30.965-53.344 53.429-37.655 54.043-45.991 115.173-22.713 147.311-6.637 4.322-13.324 7.983-19.959 10.939-26.17 11.662-51.171 12.24-69.203-.237-4.112-2.845-7.713-6.266-10.8-10.191A175.803 175.803 0 0 0 233 214.299v-2.559a175.102 175.102 0 0 1-12.633 9.305ZM514.287 64.19c-.573-16.313-4.786-30.51-12.599-41.246-18.934 12.652-37.386 30.666-52.951 53.013-21.46 30.81-33.259 63.865-35.069 92.336-1.345 21.145 2.815 39.559 12.408 52.752a174.896 174.896 0 0 0 12.634-9.305v2.559a175.82 175.82 0 0 1-11.427 8.342c3.087 3.925 6.688 7.346 10.8 10.191 18.032 12.477 43.033 11.899 69.204.237 6.634-2.956 13.322-6.617 19.959-10.939-23.278-32.138-14.942-93.268 22.713-147.311 15.651-22.464 34.226-40.627 53.343-53.43-3.093-3.937-6.701-7.368-10.824-10.221-18.032-12.477-43.033-11.899-69.204-.237-6.618 2.949-13.29 6.6-19.911 10.908 8.076 11.133 12.353 25.75 12.928 42.35h-2.004Zm-24.602-53.022c4.109 2.842 7.708 6.26 10.795 10.18-19.133 12.805-37.725 30.983-53.388 53.471-37.65 54.054-45.979 115.198-22.691 147.331-6.63 4.313-13.309 7.968-19.936 10.92-26.179 11.661-51.189 12.239-69.227-.238-4.121-2.85-7.728-6.278-10.82-10.211 19.117-12.803 37.691-30.97 53.342-53.44 37.638-54.037 45.973-115.159 22.713-147.3 6.645-4.327 13.341-7.992 19.984-10.95 26.179-11.662 51.189-12.24 69.228.237Zm92.14 156.875c-15.553 22.328-33.987 40.331-52.904 52.982-9.586-13.192-13.742-31.598-12.398-52.732 1.811-28.471 13.613-61.526 35.081-92.336 15.552-22.322 33.987-40.32 52.904-52.97 9.577 13.19 13.729 31.592 12.385 52.72-1.81 28.471-13.609 61.526-35.068 92.336Zm-258.613 52.982c18.916-12.651 37.351-30.654 52.903-52.982 21.46-30.81 33.259-63.865 35.069-92.336 1.343-21.128-2.809-39.53-12.386-52.72-18.917 12.65-37.351 30.648-52.904 52.97-21.467 30.81-33.269 63.865-35.08 92.336-1.345 21.134 2.812 39.54 12.398 52.732Z" clip-rule="evenodd" opacity=".7"/></svg>